HIERARCHY
ROOT SpineBase
{
  OFFSET 0.000000 0.000000 0.000000
  CHANNELS 6 Xposition Yposition Zposition Zrotation Xrotation Yrotation
  JOINT SpineMid
  {
    OFFSET 0.000000 34.532779 0.000000
    CHANNELS 3 Zrotation Xrotation Yrotation
    JOINT SpineShoulder
    {
      OFFSET -0.374488 25.546037 -0.885758
      CHANNELS 3 Zrotation Xrotation Yrotation
      JOINT Neck
      {
        OFFSET -0.264018 8.411429 -0.647486
        CHANNELS 3 Zrotation Xrotation Yrotation
        JOINT Head
        {
          OFFSET 0.553847 10.513769 3.266369
          CHANNELS 3 Zrotation Xrotation Yrotation
          End Site
          {
            OFFSET 0 0 0
          }
        }
      }
      JOINT ShoulderLeft
      {
        OFFSET -13.816058 -7.446421 -9.065032
        CHANNELS 3 Zrotation Xrotation Yrotation
        JOINT ElbowLeft
        {
          OFFSET -5.155739 -27.832517 0.292616
          CHANNELS 3 Zrotation Xrotation Yrotation
          JOINT WristLeft
          {
            OFFSET -3.028677 -19.429870 6.298678
            CHANNELS 3 Zrotation Xrotation Yrotation
            JOINT HandLeft
            {
              OFFSET 0.709970 -5.581322 2.873707
              CHANNELS 3 Zrotation Xrotation Yrotation
              JOINT HandTipLeft
              {
                OFFSET -0.054916 -6.874696 0.555870
                CHANNELS 3 Zrotation Xrotation Yrotation
                End Site
                {
                  OFFSET 0 0 0
                }
              }
              JOINT ThumbLeft
              {
                OFFSET -3.867845 0.365324 -1.227337
                CHANNELS 3 Zrotation Xrotation Yrotation
                End Site
                {
                  OFFSET 0 0 0
                }
              }
            }
          }
        }
      }
      JOINT ShoulderRight
      {
        OFFSET 11.627883 -4.906940 -5.126307
        CHANNELS 3 Zrotation Xrotation Yrotation
        JOINT ElbowRight
        {
          OFFSET 3.381778 -28.521519 -3.037188
          CHANNELS 3 Zrotation Xrotation Yrotation
          JOINT WristRight
          {
            OFFSET -2.755833 -24.177677 -3.672879
            CHANNELS 3 Zrotation Xrotation Yrotation
            JOINT HandRight
            {
              OFFSET 0.957712 -3.460146 2.320854
              CHANNELS 3 Zrotation Xrotation Yrotation
              JOINT HandTipRight
              {
                OFFSET 1.164311 -4.029412 0.873342
                CHANNELS 3 Zrotation Xrotation Yrotation
                End Site
                {
                  OFFSET 0 0 0
                }
              }
              JOINT ThumbRight
              {
                OFFSET -3.891899 0.523201 -3.223938
                CHANNELS 3 Zrotation Xrotation Yrotation
                End Site
                {
                  OFFSET 0 0 0
                }
              }
            }
          }
        }
      }
    }
  }
  JOINT HipLeft
  {
    OFFSET -7.968847 0.914704 -4.635854
    CHANNELS 3 Zrotation Xrotation Yrotation
    JOINT KneeLeft
    {
      OFFSET 3.775549 -35.107754 6.066942
      CHANNELS 3 Zrotation Xrotation Yrotation
      JOINT AnkleLeft
      {
        OFFSET -2.768444 -28.992008 -0.530889
        CHANNELS 3 Zrotation Xrotation Yrotation
        JOINT FootLeft
        {
          OFFSET 0.364992 -2.636957 -12.403041
          CHANNELS 3 Zrotation Xrotation Yrotation
          End Site
          {
            OFFSET 0 0 0
          }
        }
      }
    }
  }
  JOINT HipRight
  {
    OFFSET 5.221277 1.560673 -2.503249
    CHANNELS 3 Zrotation Xrotation Yrotation
    JOINT KneeRight
    {
      OFFSET 5.341810 -32.350098 8.793122
      CHANNELS 3 Zrotation Xrotation Yrotation
      JOINT AnkleRight
      {
        OFFSET 6.030671 -35.060809 -1.506704
        CHANNELS 3 Zrotation Xrotation Yrotation
        JOINT FootRight
        {
          OFFSET 0.107463 -2.678661 -12.326683
          CHANNELS 3 Zrotation Xrotation Yrotation
          End Site
          {
            OFFSET 0 0 0
          }
        }
      }
    }
  }
}
MOTION
Frames: 9
Frame Time: 0.033333
92.543480 77.283977 246.386348 -0.551288 0.793303 -9.805537 -0.046401 0.669876 9.817997 -0.008882 0.234936 0.011624 -2.959951 -4.594581 1.032766 0.000000 0.000000 0.000000 -2.353931 -3.189808 0.116793 6.554619 1.514654 0.819373 -2.327839 14.913994 1.237350 1.777521 -13.647707 -1.713698 0.000000 0.000000 0.000000 0.000000 0.000000 0.000000 -2.574608 1.115965 0.636854 11.297392 -11.007380 0.086717 -32.422423 29.935849 -0.584415 11.496790 -32.840191 1.091430 0.000000 0.000000 0.000000 0.000000 0.000000 0.000000 -8.484887 1.777727 8.825184 15.561424 -2.302987 1.478226 -6.475481 -1.121625 -1.729295 0.000000 0.000000 0.000000 -2.620962 6.858383 10.801078 -6.015499 -11.315723 -2.274047 8.133570 3.679329 -2.107551 0.000000 0.000000 0.000000
92.383753 77.360235 246.368895 -0.264770 1.237119 -9.523168 -0.005932 0.761253 9.553261 -0.015914 0.243134 0.033696 -2.835270 -4.395537 0.818448 0.000000 0.000000 0.000000 -1.936334 -3.184635 0.000925 6.323700 1.571681 1.016001 -5.338871 17.154751 0.496646 4.249644 -16.449616 -0.286554 0.000000 0.000000 0.000000 0.000000 0.000000 0.000000 -2.298768 1.203732 0.592189 9.818460 -9.546345 -0.192864 -27.748621 27.761508 -0.333273 8.458390 -30.266375 -0.050744 0.000000 0.000000 0.000000 0.000000 0.000000 0.000000 -8.876096 1.692023 8.514931 16.182055 -3.011118 1.614931 -6.976736 -0.640333 -1.566483 0.000000 0.000000 0.000000 -2.685110 6.526178 10.544227 -6.107237 -11.404410 -2.342613 8.045091 3.781339 -1.928271 0.000000 0.000000 0.000000
92.172657 77.421655 246.328142 0.081920 1.746280 -9.147724 0.026458 0.817235 9.193749 -0.030674 0.247607 0.057133 -2.478889 -3.882788 0.519967 0.000000 0.000000 0.000000 -1.388919 -2.973769 -0.147283 5.740268 1.983144 1.102700 -6.697201 14.295313 -0.192739 4.766424 -16.085327 0.355185 0.000000 0.000000 0.000000 0.000000 0.000000 0.000000 -1.255057 1.193533 0.459720 7.006583 -7.566652 -0.454356 -21.332856 25.839270 1.040572 2.239176 -29.167961 -4.078863 0.000000 0.000000 0.000000 0.000000 0.000000 0.000000 -9.011342 1.491365 8.128734 16.218485 -3.530393 1.658098 -7.200684 -0.270205 -1.355647 0.000000 0.000000 0.000000 -2.556357 6.202036 10.253251 -6.606048 -11.688180 -2.570307 8.080153 4.067563 -1.697811 0.000000 0.000000 0.000000
91.916227 77.451686 246.256328 0.452506 2.279151 -8.722581 0.039327 0.836502 8.780289 -0.048437 0.256447 0.079980 -1.939156 -3.303533 0.173842 0.000000 0.000000 0.000000 -0.578490 -3.354909 -0.166457 5.064168 2.564399 1.145699 -7.628970 15.567636 -0.199782 5.956218 -19.125233 0.843710 0.000000 0.000000 0.000000 0.000000 0.000000 0.000000 -0.267624 1.394298 0.368217 4.736562 -5.988213 -0.703586 -14.482748 26.100946 4.583270 -7.108925 -30.123134 -11.564308 0.000000 0.000000 0.000000 0.000000 0.000000 0.000000 -8.976521 1.249658 7.711721 15.914194 -4.021887 1.651749 -7.272893 0.102357 -1.152502 0.000000 0.000000 0.000000 -2.299350 5.854449 9.942923 -7.348198 -12.063886 -2.887922 8.194705 4.480891 -1.468822 0.000000 0.000000 0.000000
91.622670 77.459111 246.155414 0.815641 2.831122 -8.070525 0.051106 1.004144 8.138614 -0.052299 0.366325 0.109531 -1.032170 -2.659925 -0.302992 0.000000 0.000000 0.000000 -0.058541 -2.706610 -0.450654 4.942829 1.664453 1.681285 -9.510671 18.771184 -0.348541 9.702214 -23.487374 2.658429 0.000000 0.000000 0.000000 0.000000 0.000000 0.000000 0.372295 1.277498 0.297593 3.579679 -5.029477 -0.921203 -9.517128 29.524348 9.303238 -16.436752 -33.933142 -20.800825 0.000000 0.000000 0.000000 0.000000 0.000000 0.000000 -9.028536 1.092347 7.063334 15.917187 -4.578667 1.684041 -7.597241 0.491932 -0.786506 0.000000 0.000000 0.000000 -1.890306 5.426768 9.420263 -8.271890 -12.350408 -3.232226 8.334155 4.918086 -1.082312 0.000000 0.000000 0.000000
91.327380 77.442002 246.040991 1.175076 3.336875 -7.567745 0.072815 0.925749 7.639076 -0.099424 0.191343 0.121925 -0.602804 -2.702091 -0.544729 0.000000 0.000000 0.000000 0.638761 -1.922622 -0.628092 4.198986 1.224318 1.911810 -10.759792 17.669290 -0.953973 11.993484 -25.024513 4.043338 0.000000 0.000000 0.000000 0.000000 0.000000 0.000000 0.190097 1.689290 0.316564 3.993951 -5.079131 -1.070142 -6.349214 28.356898 10.963103 -21.317878 -29.814708 -23.464533 0.000000 0.000000 0.000000 0.000000 0.000000 0.000000 -9.008906 0.947170 6.579598 15.787452 -5.050169 1.684198 -7.877633 0.776092 -0.402183 0.000000 0.000000 0.000000 -1.521579 4.941381 9.031359 -9.117583 -12.434289 -3.504030 8.432890 5.203181 -0.688445 0.000000 0.000000 0.000000
91.062065 77.414623 245.949016 1.447789 3.672042 -7.343016 0.044008 0.561502 7.409331 -0.104121 0.017606 0.125684 -0.109402 -2.618995 -0.724326 0.000000 0.000000 0.000000 1.374968 -0.568312 -0.835958 3.588736 0.209558 2.276876 -11.688257 16.962597 -1.464342 13.087339 -25.114045 4.711254 0.000000 0.000000 0.000000 0.000000 0.000000 0.000000 0.100087 2.534904 0.357725 5.030399 -6.369073 -1.029833 -7.374030 24.872223 9.406727 -16.666295 -26.819210 -18.425093 0.000000 0.000000 0.000000 0.000000 0.000000 0.000000 -8.980880 0.894584 6.385087 15.732962 -5.554836 1.707187 -8.155406 1.073247 -0.132964 0.000000 0.000000 0.000000 -1.106479 4.556267 8.925516 -9.961491 -12.343879 -3.726474 8.562722 5.322682 -0.421118 0.000000 0.000000 0.000000
90.878334 77.392219 245.861243 1.612027 3.791103 -7.302035 0.076840 0.201597 7.367118 -0.230032 -0.358132 0.107147 0.339789 -2.825021 -0.782945 0.000000 0.000000 0.000000 1.895045 0.643033 -0.948480 3.136980 -0.497038 2.468808 -11.342985 15.385324 -1.604555 12.510800 -24.355939 4.365032 0.000000 0.000000 0.000000 0.000000 0.000000 0.000000 -0.429007 3.854969 0.493420 6.800111 -7.008051 -1.108407 -7.888371 21.678818 8.776597 -12.687242 -22.719309 -14.158017 0.000000 0.000000 0.000000 0.000000 0.000000 0.000000 -8.866090 0.908690 6.390255 15.472009 -6.018680 1.716522 -8.093892 1.424217 -0.460290 0.000000 0.000000 0.000000 -0.736004 4.170562 8.947405 -10.550362 -11.867078 -3.764050 8.751435 5.195088 -0.763051 0.000000 0.000000 0.000000
90.813249 77.468998 245.808523 1.528261 3.420611 -7.549152 -0.055035 -0.793954 7.595033 -0.051959 -0.351427 0.090088 0.944974 -2.501416 -0.799867 0.000000 0.000000 0.000000 2.652996 2.376066 -1.033550 2.260589 -0.120016 2.274462 -10.471292 6.963967 -2.405801 11.162377 -16.976150 3.486237 0.000000 0.000000 0.000000 0.000000 0.000000 0.000000 -1.348411 5.566599 0.731930 9.895241 -8.442708 -0.975749 -14.082972 17.498507 4.820809 -1.007557 -19.248824 -4.826459 0.000000 0.000000 0.000000 0.000000 0.000000 0.000000 -8.730050 1.119655 6.692892 15.370655 -6.032676 1.707075 -8.006395 1.380768 -0.844405 0.000000 0.000000 0.000000 -0.572683 4.185212 9.167936 -10.534579 -11.183181 -3.575037 8.771197 4.664889 -1.165191 0.000000 0.000000 0.000000
